<svg width="85" height="91" viewBox="0 0 85 91" fill="none" xmlns="http://www.w3.org/2000/svg">
<path d="M79.3297 46.7107C80.0304 43.8335 80.3865 40.8832 80.3906 37.9219C80.3906 27.8727 76.3986 18.235 69.2927 11.1292C62.1869 4.02329 52.5492 0.03125 42.5 0.03125C32.4508 0.03125 22.8132 4.02329 15.7073 11.1292C8.60143 18.235 4.60939 27.8727 4.60939 37.9219C4.61331 40.883 4.96981 43.8332 5.67139 46.7101C2.73988 49.3017 0.815562 52.8436 0.236623 56.7133C-0.342316 60.5831 0.461166 64.5331 2.50587 67.8691C4.55056 71.2052 7.70565 73.7139 11.4166 74.9543C15.1276 76.1947 19.1571 76.0875 22.7969 74.6515V89.4531C22.7969 89.6732 22.8449 89.8906 22.9374 90.0903C23.03 90.2899 23.1649 90.467 23.3328 90.6093C23.5007 90.7515 23.6975 90.8555 23.9097 90.914C24.1218 90.9725 24.3442 90.9841 24.5612 90.948L42.5 87.9583L60.4388 90.948C60.521 90.9615 60.6042 90.9685 60.6875 90.9688C61.0895 90.9688 61.475 90.8091 61.7592 90.5248C62.0435 90.2406 62.2031 89.8551 62.2031 89.4531V74.6515C65.8424 76.0843 69.8701 76.1892 73.5791 74.9481C77.2881 73.7069 80.4413 71.1989 82.4853 67.8643C84.5292 64.5297 85.3333 60.5817 84.7562 56.7133C84.1791 52.845 82.2579 49.3035 79.3297 46.7107ZM42.5 3.0625C51.7421 3.07277 60.6028 6.74874 67.138 13.2839C73.6731 19.8191 77.3491 28.6797 77.3594 37.9219C77.3621 40.9396 76.9664 43.9446 76.1826 46.8588C74.1001 54.668 69.378 61.5153 62.8188 66.2372C61.8876 66.9074 60.9233 67.5305 59.9297 68.1042L59.9274 68.1059L59.9164 68.113C59.1778 68.5496 58.3979 68.9419 57.7339 69.2674C52.9888 71.5794 47.7798 72.781 42.5016 72.7812C37.2233 72.7815 32.0142 71.5804 27.2689 69.2689C26.6028 68.9419 25.8228 68.5496 25.0712 68.1042C24.0749 67.5291 23.108 66.9044 22.1744 66.2322C15.6161 61.5083 10.8958 54.6592 8.81586 46.8489C8.03259 43.938 7.63743 40.9363 7.64064 37.9219C7.65091 28.6797 11.3269 19.8191 17.8621 13.2839C24.3972 6.74874 33.2579 3.07277 42.5 3.0625ZM16.7344 72.7812C14.0971 72.7816 11.5163 72.0173 9.3045 70.581C7.09269 69.1447 5.34474 67.0979 4.27233 64.6885C3.19991 62.2791 2.84904 59.6105 3.26219 57.0058C3.67535 54.4011 4.83481 51.972 6.60017 50.0128C6.63154 50.1063 6.67443 50.1946 6.70626 50.2885C7.02742 51.2183 7.37662 52.1375 7.76917 53.0366C7.80251 53.1133 7.84025 53.1882 7.8742 53.2639C8.2723 54.1598 8.70461 55.0384 9.17112 55.8999C9.21234 55.9757 9.24978 56.0542 9.29237 56.1301C9.76782 56.994 10.2831 57.836 10.8241 58.6605C10.9076 58.7881 10.9893 58.9165 11.0744 59.043C11.6136 59.844 12.1827 60.6234 12.7818 61.3812C12.8786 61.5039 12.9769 61.6247 13.0754 61.7463C13.6927 62.5093 14.3353 63.2516 15.0099 63.9653C15.0825 64.0422 15.1583 64.1157 15.2315 64.1927C16.6584 65.6774 18.204 67.0433 19.8529 68.2768C19.9507 68.3502 20.046 68.4259 20.1447 68.4981C20.9294 69.0731 21.7377 69.6163 22.5697 70.1275C22.6474 70.1757 22.719 70.2329 22.797 70.2805V71.361C20.9124 72.2947 18.8377 72.7807 16.7344 72.7812ZM25.8281 72.2659V71.9373L25.9342 71.9905C30.631 74.2904 35.7584 75.5781 40.9844 75.7704V85.1381L25.8281 87.6636V72.2659ZM59.1719 87.6636L44.0156 85.1381V75.7704C49.2422 75.5781 54.37 74.2899 59.0668 71.9893C59.1008 71.9731 59.1364 71.9554 59.1719 71.9377V87.6636ZM68.2656 72.7812C66.1624 72.7805 64.0877 72.2943 62.2031 71.3604V70.2805C62.2777 70.235 62.3458 70.1807 62.42 70.1347C63.2509 69.6206 64.0601 69.0769 64.8476 68.5035C64.9537 68.4261 65.0557 68.3447 65.1607 68.2661C65.9773 67.6545 66.7741 67.0185 67.5368 66.3447L67.5495 66.333C68.3153 65.6555 69.0466 64.9418 69.7546 64.2063C69.8345 64.1232 69.9169 64.0432 69.9962 63.9596C70.6676 63.249 71.3067 62.5103 71.921 61.7513C72.021 61.6278 72.1209 61.505 72.2194 61.3803C72.8192 60.6204 73.3896 59.8393 73.9306 59.037C74.0115 58.9168 74.0891 58.7945 74.1687 58.6732C74.7155 57.8396 75.236 56.9909 75.7161 56.1166C75.7486 56.0578 75.7775 55.9972 75.8097 55.9381C76.2926 55.0476 76.7399 54.1383 77.1514 53.21C77.174 53.1589 77.1992 53.1093 77.2216 53.0584C77.6233 52.1396 77.9805 51.2012 78.3074 50.2509C78.3351 50.1702 78.3724 50.0936 78.3996 50.0126C80.1649 51.9719 81.3244 54.4009 81.7376 57.0056C82.1508 59.6103 81.8 62.2789 80.7276 64.6883C79.6552 67.0977 77.9073 69.1445 75.6955 70.5809C73.4837 72.0173 70.9029 72.7816 68.2656 72.7812Z" fill="#E05100"/>
</svg>
